<svg xmlns="http://www.w3.org/2000/svg" width="41" height="42" viewBox="0 0 41 42" fill="none">
<path d="M20.5289 25.003C20.124 25.003 19.7282 25.1229 19.3915 25.3477C19.0549 25.5724 18.7925 25.8918 18.6376 26.2654C18.4826 26.6391 18.4421 27.0503 18.5211 27.447C18.6001 27.8437 18.795 28.2081 19.0813 28.4941C19.3676 28.7801 19.7324 28.9749 20.1295 29.0538C20.5266 29.1327 20.9382 29.0922 21.3122 28.9374C21.6863 28.7826 22.006 28.5205 22.231 28.1842C22.4559 27.8479 22.576 27.4525 22.576 27.048C22.576 26.5057 22.3603 25.9855 21.9764 25.602C21.5925 25.2185 21.0718 25.003 20.5289 25.003ZM20.5289 0.462646C17.8405 0.462646 15.1786 0.991609 12.6949 2.01933C10.2112 3.04706 7.95448 4.55341 6.05356 6.4524C2.21448 10.2876 0.0577007 15.4892 0.0577007 20.9129C0.0398045 25.6352 1.67654 30.2148 4.68418 33.858L0.589951 37.948C0.305898 38.2356 0.113477 38.6008 0.0369675 38.9975C-0.0395416 39.3942 0.0032895 39.8047 0.160056 40.1771C0.330085 40.5451 0.605722 40.8543 0.951976 41.0655C1.29823 41.2766 1.69949 41.3803 2.10482 41.3632H20.5289C25.9581 41.3632 31.1651 39.2087 35.0041 35.3735C38.8432 31.5383 41 26.3367 41 20.9129C41 15.4892 38.8432 10.2876 35.0041 6.4524C31.1651 2.61722 25.9581 0.462646 20.5289 0.462646ZM20.5289 37.2732H7.03836L8.94218 35.3713C9.13561 35.1819 9.28949 34.956 9.39491 34.7068C9.50033 34.4576 9.55519 34.1899 9.55631 33.9193C9.54862 33.3799 9.32788 32.8654 8.94218 32.4878C6.26166 29.813 4.59242 26.2925 4.21885 22.526C3.84529 18.7596 4.79051 14.9803 6.89348 11.832C8.99645 8.68374 12.1271 6.36125 15.7519 5.26023C19.3768 4.15922 23.2717 4.3478 26.773 5.79386C30.2743 7.23992 33.1654 9.85398 34.9537 13.1907C36.7421 16.5274 37.317 20.3803 36.5805 24.093C35.8441 27.8057 33.8419 31.1484 30.915 33.5517C27.9881 35.955 24.3176 37.2702 20.5289 37.2732ZM20.5289 12.7328C19.9859 12.7328 19.4652 12.9483 19.0813 13.3318C18.6974 13.7153 18.4817 14.2355 18.4817 14.7779V20.9129C18.4817 21.4553 18.6974 21.9755 19.0813 22.359C19.4652 22.7425 19.9859 22.958 20.5289 22.958C21.0718 22.958 21.5925 22.7425 21.9764 22.359C22.3603 21.9755 22.576 21.4553 22.576 20.9129V14.7779C22.576 14.2355 22.3603 13.7153 21.9764 13.3318C21.5925 12.9483 21.0718 12.7328 20.5289 12.7328Z" fill="#9E9D24"/>
</svg>