<svg xmlns="http://www.w3.org/2000/svg" width="41" height="42" viewBox="0 0 41 42" fill="none">
<path d="M28.0132 13.5511C27.8249 13.3618 27.6009 13.2115 27.3542 13.1089C27.1074 13.0063 26.8427 12.9535 26.5753 12.9535C26.308 12.9535 26.0433 13.0063 25.7965 13.1089C25.5498 13.2115 25.3258 13.3618 25.1375 13.5511L20.5 18.1978L15.8625 13.5511C15.4811 13.1707 14.9639 12.957 14.4247 12.957C13.8854 12.957 13.3682 13.1707 12.9868 13.5511C12.6055 13.9316 12.3913 14.4475 12.3913 14.9855C12.3913 15.5235 12.6055 16.0395 12.9868 16.4199L17.6446 21.0464L12.9868 25.6729C12.797 25.8607 12.6464 26.0841 12.5435 26.3303C12.4407 26.5765 12.3878 26.8406 12.3878 27.1073C12.3878 27.374 12.4407 27.6381 12.5435 27.8843C12.6464 28.1304 12.797 28.3539 12.9868 28.5417C13.1751 28.7311 13.3991 28.8814 13.6458 28.9839C13.8926 29.0865 14.1573 29.1393 14.4247 29.1393C14.692 29.1393 14.9567 29.0865 15.2035 28.9839C15.4502 28.8814 15.6742 28.7311 15.8625 28.5417L20.5 23.895L25.1375 28.5417C25.3258 28.7311 25.5498 28.8814 25.7965 28.9839C26.0433 29.0865 26.308 29.1393 26.5753 29.1393C26.8427 29.1393 27.1074 29.0865 27.3542 28.9839C27.6009 28.8814 27.8249 28.7311 28.0132 28.5417C28.203 28.3539 28.3536 28.1304 28.4565 27.8843C28.5593 27.6381 28.6122 27.374 28.6122 27.1073C28.6122 26.8406 28.5593 26.5765 28.4565 26.3303C28.3536 26.0841 28.203 25.8607 28.0132 25.6729L23.3554 21.0464L28.0132 16.4199C28.203 16.2321 28.3536 16.0087 28.4565 15.7625C28.5593 15.5163 28.6122 15.2522 28.6122 14.9855C28.6122 14.7188 28.5593 14.4548 28.4565 14.2086C28.3536 13.9624 28.203 13.7389 28.0132 13.5511ZM34.8176 6.76293C32.9495 4.83335 30.7148 3.29424 28.2441 2.23543C25.7734 1.17661 23.1161 0.619288 20.4271 0.595978C17.7382 0.572667 15.0715 1.08384 12.5827 2.09966C10.0939 3.11548 7.83286 4.61561 5.93142 6.51252C4.02999 8.40943 2.52628 10.6651 1.50803 13.148C0.489787 15.6309 -0.0226015 18.2912 0.000764618 20.9737C0.0241307 23.6562 0.582784 26.3073 1.64413 28.7721C2.70547 31.2369 4.24825 33.4662 6.18244 35.3299C8.05054 37.2595 10.2851 38.7986 12.7559 39.8574C15.2266 40.9162 17.8839 41.4735 20.5729 41.4969C23.2618 41.5202 25.9285 41.009 28.4173 39.9932C30.9061 38.9774 33.1671 37.4772 35.0686 35.5803C36.97 33.6834 38.4737 31.4277 39.492 28.9448C40.5102 26.462 41.0226 23.8017 40.9992 21.1191C40.9759 18.4366 40.4172 15.7856 39.3559 13.3207C38.2945 10.8559 36.7518 8.62659 34.8176 6.76293ZM31.9621 32.4813C29.3134 35.1267 25.8271 36.7741 22.0974 37.1427C18.3677 37.5114 14.6252 36.5786 11.5075 34.5031C8.38989 32.4277 6.09001 29.3381 4.99971 25.7607C3.90942 22.1834 4.09617 18.3395 5.52815 14.8841C6.96013 11.4287 9.54873 8.57544 12.8529 6.81054C16.1572 5.04564 19.9725 4.47824 23.6491 5.20503C27.3256 5.93182 30.6358 7.90782 33.0157 10.7964C35.3956 13.6849 36.698 17.3073 36.7009 21.0464C36.7081 23.1703 36.293 25.2746 35.4796 27.2374C34.6662 29.2002 33.4707 30.9825 31.9621 32.4813Z" fill="#9E9D24"/>
</svg>