<svg xmlns="http://www.w3.org/2000/svg" width="34" height="34" viewBox="0 0 38 38" fill="none">
  <path fill-rule="evenodd" clip-rule="evenodd" d="M15.7367 3.97774C18.2057 3.69671 20.6987 3.69671 23.1677 3.97774L25.6937 4.26524C26.0554 4.30642 26.3784 4.51131 26.5697 4.82112C26.761 5.13093 26.7997 5.5114 26.6745 5.85334L23.1872 15.3796H26.9165C27.3061 15.3796 27.6708 15.5706 27.8927 15.8909C28.1145 16.2111 28.1652 16.6198 28.0282 16.9845L27.7267 17.7876C25.6347 23.3593 22.6772 28.5663 18.963 33.2166L18.3444 33.9911C18.0295 34.3853 17.5 34.5375 17.0239 34.3707C16.5478 34.2039 16.229 33.7545 16.229 33.25V21.9253H13.3451C12.7299 21.9253 12.2166 21.4555 12.1622 20.8428L11.9681 18.655C11.6396 14.9532 11.6396 11.2297 11.9681 7.52796L12.1622 5.34015C12.2121 4.77829 12.6503 4.32903 13.2108 4.26524L15.7367 3.97774ZM22.8991 6.3375C20.6086 6.07679 18.2958 6.07679 16.0053 6.3375L14.4423 6.51541L14.3338 7.73791C14.0177 11.2999 14.0177 14.883 14.3338 18.445L14.4319 19.5503H17.4165C18.0723 19.5503 18.604 20.082 18.604 20.7378V29.7703C21.299 26.0617 23.5141 22.0244 25.1949 17.7546H21.4879C21.1001 17.7546 20.7367 17.5652 20.5146 17.2473C20.2924 16.9294 20.2395 16.523 20.3728 16.1589L23.9254 6.4543L22.8991 6.3375Z" fill="#9E9D24"/>
</svg>