<svg xmlns="http://www.w3.org/2000/svg" width="41" height="41" viewBox="0 0 41 41" fill="none">
<path d="M26.076 13.9301L17.2815 22.7241L13.899 19.3496C13.7152 19.1355 13.4891 18.9617 13.2347 18.8389C12.9804 18.7162 12.7034 18.6472 12.4211 18.6363C12.1387 18.6254 11.8572 18.6729 11.5941 18.7757C11.3311 18.8785 11.0922 19.0345 10.8924 19.2338C10.6926 19.4331 10.5363 19.6714 10.4332 19.9339C10.3301 20.1963 10.2826 20.4772 10.2935 20.7588C10.3044 21.0405 10.3735 21.3168 10.4966 21.5706C10.6196 21.8243 10.7939 22.0499 11.0085 22.2332L15.826 27.0597C16.0176 27.2493 16.2447 27.3992 16.4945 27.501C16.7443 27.6028 17.0117 27.6544 17.2815 27.6528C17.8193 27.6506 18.3347 27.4376 18.7165 27.0597L28.9665 16.8341C29.1586 16.644 29.3112 16.4178 29.4152 16.1686C29.5193 15.9194 29.5729 15.6521 29.5729 15.3821C29.5729 15.1121 29.5193 14.8448 29.4152 14.5956C29.3112 14.3464 29.1586 14.1202 28.9665 13.9301C28.5824 13.5492 28.0628 13.3354 27.5213 13.3354C26.9797 13.3354 26.4601 13.5492 26.076 13.9301ZM20.5 0.0437012C16.4455 0.0437012 12.482 1.24314 9.11082 3.49035C5.73961 5.73756 3.11207 8.93159 1.56048 12.6686C0.00888232 16.4055 -0.397086 20.5176 0.393911 24.4847C1.18491 28.4519 3.13734 32.0959 6.00432 34.9561C8.8713 37.8162 12.524 39.764 16.5007 40.5531C20.4773 41.3422 24.5991 40.9372 28.345 39.3893C32.0909 37.8414 35.2926 35.2202 37.5451 31.857C39.7977 28.4938 41 24.5398 41 20.4949C41 17.8092 40.4698 15.1498 39.4395 12.6686C38.4093 10.1873 36.8993 7.93279 34.9957 6.03372C33.0921 4.13465 30.8322 2.62822 28.345 1.60046C25.8578 0.572687 23.1921 0.0437012 20.5 0.0437012ZM20.5 36.8559C17.2564 36.8559 14.0856 35.8963 11.3887 34.0985C8.69169 32.3008 6.58966 29.7455 5.34838 26.756C4.10711 23.7664 3.78233 20.4767 4.41513 17.303C5.04793 14.1293 6.60988 11.2141 8.90346 8.92595C11.197 6.63783 14.1192 5.0796 17.3005 4.44831C20.4818 3.81702 23.7793 4.14102 26.776 5.37934C29.7727 6.61767 32.334 8.71469 34.1361 11.4052C35.9382 14.0958 36.9 17.259 36.9 20.4949C36.9 24.8341 35.1722 28.9956 32.0966 32.0638C29.021 35.1321 24.8496 36.8559 20.5 36.8559Z" fill="#9E9D24"/>
</svg>